<?xml version="1.0" encoding="utf-8"?>
<!-- Generator: Adobe Illustrator 18.0.0, SVG Export Plug-In . SVG Version: 6.00 Build 0)  -->
<!DOCTYPE svg PUBLIC "-//W3C//DTD SVG 1.1//EN" "http://www.w3.org/Graphics/SVG/1.1/DTD/svg11.dtd">
<svg version="1.1" id="Layer_1" xmlns="http://www.w3.org/2000/svg" xmlns:xlink="http://www.w3.org/1999/xlink" x="0px" y="0px"
	 viewBox="0 0 244.6 101.1" enable-background="new 0 0 244.6 101.1" xml:space="preserve">
<g>
	<path fill="#FFFFFF" d="M152.4,96.3c-0.2-0.2-0.4-0.3-0.7-0.5c-0.2-0.1-0.5-0.2-0.8-0.3c-0.3-0.1-0.5-0.2-0.8-0.3
		c-0.2-0.1-0.5-0.2-0.7-0.3c-0.2-0.1-0.3-0.2-0.4-0.3c-0.1-0.1-0.1-0.3-0.1-0.4c0-0.2,0-0.3,0.1-0.4c0.1-0.1,0.1-0.2,0.2-0.3
		c0.1-0.1,0.2-0.2,0.4-0.2c0.2-0.1,0.4-0.1,0.6-0.1c0.2,0,0.5,0,0.6,0.1c0.2,0.1,0.3,0.1,0.5,0.2c0.1,0.1,0.3,0.2,0.4,0.2
		c0.2,0.2,0.5,0.1,0.6,0c0.1-0.1,0.2-0.1,0.2-0.2l0.5-0.9l-0.1-0.1c-0.3-0.3-0.7-0.6-1.2-0.7c-0.5-0.2-1-0.3-1.5-0.3
		c-0.5,0-0.9,0.1-1.3,0.2c-0.4,0.2-0.7,0.4-1,0.6c-0.3,0.3-0.5,0.5-0.6,0.9s-0.2,0.7-0.2,1c0,0.4,0.1,0.8,0.2,1.1
		c0.1,0.3,0.3,0.6,0.5,0.8c0.2,0.2,0.4,0.4,0.7,0.5c0.3,0.1,0.5,0.2,0.8,0.3c0.3,0.1,0.5,0.2,0.8,0.2c0.2,0.1,0.5,0.2,0.6,0.2
		c0.2,0.1,0.3,0.2,0.4,0.3c0.1,0.1,0.2,0.3,0.2,0.5c0,0.4-0.1,0.7-0.4,0.9c-0.2,0.2-0.6,0.3-1,0.3c-0.3,0-0.6,0-0.8-0.1
		c-0.2-0.1-0.4-0.2-0.6-0.3c-0.2-0.1-0.3-0.2-0.4-0.3c-0.3-0.2-0.5-0.2-0.7-0.1c-0.1,0-0.1,0.1-0.2,0.2l-0.5,0.9l0.1,0.1
		c0.2,0.2,0.4,0.4,0.6,0.5c0.2,0.1,0.5,0.3,0.7,0.4c0.3,0.1,0.5,0.2,0.8,0.2c0.3,0.1,0.6,0.1,0.9,0.1c0.5,0,1-0.1,1.4-0.2
		c0.4-0.2,0.8-0.4,1-0.7c0.3-0.3,0.5-0.6,0.6-1c0.1-0.4,0.2-0.8,0.2-1.2c0-0.4-0.1-0.7-0.2-1C152.8,96.7,152.6,96.5,152.4,96.3"/>
	<rect x="157.6" y="91.7" fill="#FFFFFF" width="2" height="9.3"/>
	<path fill="#FFFFFF" d="M173.2,91.7c-0.1,0-0.1,0-0.2,0c-0.1,0-0.1,0.1-0.2,0.1c0,0-0.1,0.1-0.1,0.2l-2.7,5
		c-0.1,0.1-0.1,0.3-0.2,0.4c0,0,0,0.1-0.1,0.1c0,0,0-0.1-0.1-0.1c-0.1-0.1-0.1-0.3-0.2-0.4l-2.7-5c0-0.1-0.1-0.1-0.1-0.2
		c-0.1-0.1-0.1-0.1-0.2-0.1c-0.1,0-0.1,0-0.2,0c-0.1,0-0.1,0-0.2,0h-1.4v9.3h1.7v-6c0-0.1,0-0.1,0-0.2l2.5,4.6
		c0.1,0.1,0.2,0.2,0.3,0.3c0.1,0.1,0.3,0.1,0.4,0.1h0.2c0.2,0,0.3,0,0.4-0.1c0.1-0.1,0.2-0.2,0.3-0.3l2.5-4.6c0,0.1,0,0.1,0,0.2v6
		h1.7v-9.3h-1.4C173.3,91.7,173.2,91.7,173.2,91.7"/>
	<path fill="#FFFFFF" d="M185.6,92.5c-0.3-0.3-0.7-0.5-1.1-0.6c-0.5-0.1-1-0.2-1.6-0.2h-3.1v9.3h1.9v-3.2h1.1c0.6,0,1.1-0.1,1.6-0.2
		c0.5-0.2,0.8-0.4,1.1-0.6c0.3-0.3,0.5-0.6,0.7-1c0.2-0.4,0.2-0.8,0.2-1.3c0-0.4-0.1-0.8-0.2-1.2C186.1,93.1,185.9,92.8,185.6,92.5
		 M183.6,96.1c-0.2,0.1-0.5,0.1-0.8,0.1h-1.1v-3h1.1c0.3,0,0.6,0,0.8,0.1c0.2,0.1,0.4,0.2,0.5,0.3c0.1,0.1,0.2,0.3,0.3,0.5
		c0.1,0.2,0.1,0.4,0.1,0.6c0,0.2,0,0.5-0.1,0.6c-0.1,0.2-0.2,0.3-0.3,0.5C184,95.9,183.8,96,183.6,96.1"/>
	<polygon fill="#FFFFFF" points="192.8,91.7 190.8,91.7 190.8,101 196.4,101 196.4,99.3 192.8,99.3 	"/>
	<rect x="200.8" y="91.7" fill="#FFFFFF" width="2" height="9.3"/>
	<polygon fill="#FFFFFF" points="207.9,101 209.8,101 209.8,97.3 213.2,97.3 213.2,95.7 209.8,95.7 209.8,93.3 213.9,93.3 
		213.9,91.7 207.9,91.7 	"/>
	<rect x="218.5" y="91.7" fill="#FFFFFF" width="2" height="9.3"/>
	<polygon fill="#FFFFFF" points="225.5,101 231.5,101 231.5,99.4 227.5,99.4 227.5,97.1 230.6,97.1 230.6,95.5 227.5,95.5 
		227.5,93.3 231.5,93.3 231.5,91.7 225.5,91.7 	"/>
	<path fill="#FFFFFF" d="M243,93c-0.4-0.4-0.9-0.7-1.5-1c-0.6-0.2-1.2-0.3-1.9-0.3H236v9.3h3.6c0.7,0,1.3-0.1,1.9-0.3
		c0.6-0.2,1.1-0.6,1.5-1c0.4-0.4,0.7-0.9,1-1.5c0.2-0.6,0.3-1.2,0.3-1.9c0-0.7-0.1-1.3-0.3-1.9C243.7,93.9,243.4,93.4,243,93
		 M239.6,99.4H238v-6.1h1.6c0.4,0,0.8,0.1,1.1,0.2c0.3,0.1,0.6,0.3,0.9,0.6c0.2,0.3,0.4,0.6,0.5,1c0.1,0.4,0.2,0.8,0.2,1.3
		c0,0.5-0.1,0.9-0.2,1.3c-0.1,0.4-0.3,0.7-0.5,1c-0.2,0.3-0.5,0.5-0.9,0.6C240.4,99.3,240,99.4,239.6,99.4"/>
	<polygon fill="#FFFFFF" points="0.4,93.3 3.1,93.3 3.1,101 5.1,101 5.1,93.3 7.8,93.3 7.8,91.7 0.4,91.7 	"/>
	<path fill="#FFFFFF" d="M16.7,97c0.2-0.1,0.4-0.2,0.6-0.3c0.3-0.2,0.5-0.4,0.7-0.6c0.2-0.2,0.3-0.5,0.4-0.8
		c0.1-0.3,0.1-0.6,0.1-0.9c0-0.4-0.1-0.8-0.2-1.1c-0.1-0.3-0.4-0.6-0.7-0.9c-0.3-0.2-0.7-0.4-1.1-0.6c-0.4-0.1-1-0.2-1.6-0.2H12v9.3
		H14v-3.5h0.6c0.2,0,0.3,0,0.3,0.1c0.1,0,0.1,0.1,0.2,0.2l1.9,2.9c0.1,0.1,0.2,0.2,0.3,0.3c0.1,0.1,0.3,0.1,0.4,0.1h1.8l-2.4-3.6
		C16.9,97.3,16.8,97.1,16.7,97 M14,93.2h0.9c0.6,0,1,0.1,1.3,0.3c0.3,0.2,0.4,0.5,0.4,1c0,0.2,0,0.4-0.1,0.6
		c-0.1,0.2-0.2,0.3-0.3,0.4c-0.1,0.1-0.3,0.2-0.5,0.3c-0.2,0.1-0.5,0.1-0.8,0.1H14V93.2z"/>
	<path fill="#FFFFFF" d="M28.1,91.7h-1.9l-3.7,9.3H24c0.2,0,0.3-0.1,0.4-0.1c0.1-0.1,0.2-0.2,0.2-0.3l0.6-1.8H29l0.6,1.8
		c0.1,0.1,0.1,0.2,0.2,0.3c0.1,0.1,0.3,0.1,0.4,0.1h1.5L28.1,91.7L28.1,91.7z M27.1,94c0-0.1,0-0.1,0-0.2c0,0.1,0,0.1,0.1,0.2
		c0.1,0.2,0.1,0.3,0.2,0.5l1,2.8h-2.5l1-2.8C27,94.3,27.1,94.2,27.1,94"/>
	<path fill="#FFFFFF" d="M42.7,93c-0.4-0.4-0.9-0.7-1.5-1c-0.6-0.2-1.2-0.3-1.9-0.3h-3.6v9.3h3.6c0.7,0,1.3-0.1,1.9-0.3
		c0.6-0.2,1.1-0.6,1.5-1c0.4-0.4,0.7-0.9,1-1.5c0.2-0.6,0.3-1.2,0.3-1.9c0-0.7-0.1-1.3-0.3-1.9C43.5,93.9,43.1,93.4,42.7,93
		 M39.3,99.4h-1.6v-6.1h1.6c0.4,0,0.8,0.1,1.1,0.2c0.3,0.1,0.6,0.3,0.9,0.6c0.2,0.3,0.4,0.6,0.5,1c0.1,0.4,0.2,0.8,0.2,1.3
		c0,0.5-0.1,0.9-0.2,1.3c-0.1,0.4-0.3,0.7-0.5,1c-0.2,0.3-0.5,0.5-0.9,0.6C40.1,99.3,39.7,99.4,39.3,99.4"/>
	<polygon fill="#FFFFFF" points="48.4,101 54.4,101 54.4,99.4 50.4,99.4 50.4,97.1 53.5,97.1 53.5,95.5 50.4,95.5 50.4,93.3 
		54.4,93.3 54.4,91.7 48.4,91.7 	"/>
	<polygon fill="#FFFFFF" points="64.6,101 66.6,101 66.6,97.3 70,97.3 70,95.7 66.6,95.7 66.6,93.3 70.6,93.3 70.6,91.7 64.6,91.7 	
		"/>
	<rect x="75.2" y="91.7" fill="#FFFFFF" width="2" height="9.3"/>
	<path fill="#FFFFFF" d="M88.4,97.3c0,0.1,0,0.3,0,0.4v0L83.9,92c0-0.1-0.1-0.1-0.1-0.2c0,0-0.1-0.1-0.1-0.1c-0.1,0-0.1,0-0.2,0h0
		c-0.1,0-0.1,0-0.2,0h-1v9.3H84v-5.7c0-0.1,0-0.2,0-0.3l4.5,5.7c0.1,0.1,0.2,0.2,0.3,0.3c0.1,0,0.2,0.1,0.4,0.1h1v-9.3h-1.7V97.3z"
		/>
	<path fill="#FFFFFF" d="M99.7,91.7h-1.9l-3.7,9.3h1.5c0.2,0,0.3-0.1,0.4-0.1c0.1-0.1,0.2-0.2,0.2-0.3l0.6-1.8h3.6l0.6,1.8
		c0.1,0.1,0.1,0.2,0.2,0.3c0.1,0.1,0.3,0.1,0.4,0.1h1.5L99.7,91.7L99.7,91.7z M98.7,94c0-0.1,0-0.1,0.1-0.2c0,0.1,0,0.1,0.1,0.2
		c0.1,0.2,0.1,0.3,0.2,0.5l1,2.8h-2.5l1-2.8C98.6,94.3,98.6,94.2,98.7,94"/>
	<path fill="#FFFFFF" d="M113.4,97.3c0,0.1,0,0.3,0,0.4v0l-4.5-5.7c0-0.1-0.1-0.1-0.1-0.2c0,0-0.1-0.1-0.1-0.1c-0.1,0-0.1,0-0.2,0h0
		c-0.1,0-0.1,0-0.2,0h-1v9.3h1.7v-5.7c0-0.1,0-0.2,0-0.3l4.5,5.7c0.1,0.1,0.2,0.2,0.3,0.3c0.1,0,0.2,0.1,0.4,0.1h1v-9.3h-1.7V97.3z"
		/>
	<path fill="#FFFFFF" d="M122.3,94.1c0.2-0.3,0.5-0.5,0.9-0.6c0.3-0.1,0.7-0.2,1.1-0.2c0.4,0,0.6,0,0.9,0.1c0.2,0.1,0.4,0.2,0.6,0.2
		c0.1,0.1,0.3,0.2,0.4,0.2c0.2,0.2,0.5,0.2,0.7,0.1c0.1,0,0.1-0.1,0.2-0.2l0.6-0.9l-0.1-0.1c-0.4-0.4-0.8-0.7-1.3-0.9
		c-0.5-0.2-1.1-0.3-1.8-0.3c-0.7,0-1.4,0.1-1.9,0.4c-0.6,0.2-1.1,0.6-1.5,1c-0.4,0.4-0.8,0.9-1,1.5c-0.2,0.6-0.3,1.2-0.3,1.9
		c0,0.7,0.1,1.3,0.3,1.9c0.2,0.6,0.5,1.1,0.9,1.5c0.4,0.4,0.9,0.8,1.4,1c0.5,0.2,1.2,0.4,1.9,0.4c0.8,0,1.4-0.1,2-0.4
		c0.6-0.2,1-0.6,1.4-1.1l0.1-0.1l-0.7-0.8c-0.1-0.2-0.4-0.2-0.5-0.1c-0.1,0-0.1,0.1-0.2,0.1c-0.1,0.1-0.3,0.2-0.4,0.3
		c-0.1,0.1-0.3,0.1-0.4,0.2c-0.1,0.1-0.3,0.1-0.5,0.1c-0.2,0-0.4,0-0.6,0c-0.4,0-0.7-0.1-1-0.2c-0.3-0.1-0.6-0.3-0.8-0.6
		c-0.2-0.3-0.4-0.6-0.6-1c-0.1-0.4-0.2-0.8-0.2-1.3c0-0.5,0.1-0.9,0.2-1.3C121.9,94.7,122.1,94.3,122.3,94.1"/>
	<polygon fill="#FFFFFF" points="137.8,93.3 137.8,91.7 131.8,91.7 131.8,101 137.8,101 137.8,99.4 133.7,99.4 133.7,97.1 
		136.9,97.1 136.9,95.5 133.7,95.5 133.7,93.3 	"/>
	<path fill="#FFFFFF" d="M41.5,14c-4.8-2.7-10.3-4-16.2-4H1.6C0.7,10,0,10.7,0,11.6v58.5c0,0.9,0.7,1.6,1.6,1.6h23.5
		c6,0,11.5-1.3,16.3-4c4.9-2.7,8.7-6.4,11.5-11.1c2.8-4.7,4.2-10,4.2-15.8c0-5.8-1.4-11.1-4.1-15.8C50.2,20.4,46.4,16.6,41.5,14
		 M46.6,40.9c0,4-0.9,7.6-2.8,10.9c-1.9,3.2-4.4,5.8-7.6,7.6c-3.2,1.8-6.8,2.8-10.7,2.8H11.9c-0.9,0-1.6-0.7-1.6-1.6V21.1
		c0-0.9,0.7-1.6,1.6-1.6h13.2c4,0,7.7,0.9,10.9,2.8c3.2,1.9,5.9,4.4,7.7,7.7C45.7,33.2,46.6,36.9,46.6,40.9"/>
	<path fill="#FFFFFF" d="M109.2,43.9c2.4-3.5,3.5-7.8,3.5-12.8c0-6.7-2.2-12-6.5-15.7C101.9,11.8,95.8,10,88,10H65.2
		c-0.9,0-1.6,0.7-1.6,1.6v58.5c0,0.9,0.7,1.6,1.6,1.6h7.1c0.9,0,1.6-0.7,1.6-1.6V54.7c0-0.9,0.7-1.6,1.6-1.6H88c0.5,0,1.1,0,1.8-0.1
		c0.6,0,1.1,0.3,1.4,0.7l10.8,17.1c0.3,0.5,0.8,0.7,1.4,0.7h8c1.3,0,2.1-1.4,1.3-2.5l-11.4-16.6c-0.5-0.8-0.3-1.9,0.6-2.3
		C105,48.6,107.4,46.5,109.2,43.9 M102.8,31.4c0,4.1-1.2,7-3.7,9.1c-2.5,2.1-6.2,3.1-11.1,3.1H75.5c-0.9,0-1.6-0.7-1.6-1.6V21.1
		c0-0.9,0.7-1.6,1.6-1.6H88c4.8,0,8.6,1,11.1,3C101.6,24.5,102.8,27.4,102.8,31.4"/>
	<path fill="#FFFFFF" d="M125.9,71.7h7.1c0.9,0,1.6-0.7,1.6-1.6V11.6c0-0.9-0.7-1.6-1.6-1.6h-7.1c-0.9,0-1.6,0.7-1.6,1.6v58.5
		C124.3,70.9,125.1,71.7,125.9,71.7"/>
	<path fill="#FFFFFF" d="M148.3,71.7h7.1c0.9,0,1.6-0.7,1.6-1.6V11.6c0-0.9-0.7-1.6-1.6-1.6h-7.1c-0.9,0-1.6,0.7-1.6,1.6v58.5
		C146.7,70.9,147.4,71.7,148.3,71.7"/>
	<path fill="#FFFFFF" d="M185.8,15.5c-4.2-3.7-10.3-5.5-17.9-5.5h-3.4c-0.9,0-1.6,0.7-1.6,1.6v6.3c0,0.9,0.7,1.6,1.6,1.6l3,0
		c4.8,0,8.6,1,11.1,3c2.5,2,3.7,4.9,3.7,8.8c0,4.1-1.2,7-3.7,9.1c-2.5,2.1-6.2,3.1-11.1,3.1h-3c-0.9,0-1.6,0.7-1.6,1.6v6.3
		c0,0.9,0.7,1.6,1.6,1.6h3.4c7.6,0,13.6-1.9,17.9-5.8c4.3-3.9,6.5-9.3,6.5-16.2C192.2,24.5,190,19.2,185.8,15.5"/>
	<path fill="#FFFFFF" d="M228.9,40.8c2.5-2.1,6.2-3.1,11.1-3.1h3c0.9,0,1.6-0.7,1.6-1.6v-6.3c0-0.9-0.7-1.6-1.6-1.6h-3.4
		c-7.6,0-13.6,1.9-17.9,5.8c-4.3,3.9-6.5,9.3-6.5,16.2c0,6.6,2.2,11.9,6.5,15.6c4.2,3.7,10.3,5.5,17.9,5.5h3.4
		c0.9,0,1.6-0.7,1.6-1.6v-6.3c0-0.9-0.7-1.6-1.6-1.6l-3,0c-4.8,0-8.6-1-11.1-3c-2.5-2-3.7-4.9-3.7-8.8
		C225.2,45.8,226.4,42.8,228.9,40.8"/>
	<path fill="#73C69C" d="M190.4,79.9l6.8,1.7c0.8,0.2,1.7-0.3,1.9-1.2l19.1-76.8c0.2-0.9-0.3-1.7-1.2-1.9L210.3,0
		c-0.8-0.2-1.7,0.3-1.9,1.2L189.2,78C189,78.8,189.5,79.7,190.4,79.9"/>
</g>
</svg>
